<mxfile host="app.diagrams.net" modified="2021-12-27T15:00:39.483Z" agent="5.0 (Windows NT 10.0; Win64; x64) AppleWebKit/537.36 (KHTML, like Gecko) Chrome/96.0.4664.110 Safari/537.36" etag="fL9am6NuJ4PWH5lDjVz2" version="16.1.0" type="github">
  <diagram id="C5RBs43oDa-KdzZeNtuy" name="Page-1">
    <mxGraphModel dx="1550" dy="871" grid="1" gridSize="10" guides="1" tooltips="1" connect="1" arrows="1" fold="1" page="1" pageScale="1" pageWidth="827" pageHeight="1169" math="0" shadow="0">
      <root>
        <mxCell id="WIyWlLk6GJQsqaUBKTNV-0" />
        <mxCell id="WIyWlLk6GJQsqaUBKTNV-1" parent="WIyWlLk6GJQsqaUBKTNV-0" />
        <mxCell id="WoCR_UWKjWeRZP0ESXRB-26" value="" style="edgeStyle=orthogonalEdgeStyle;rounded=0;orthogonalLoop=1;jettySize=auto;html=1;" edge="1" parent="WIyWlLk6GJQsqaUBKTNV-1" source="WoCR_UWKjWeRZP0ESXRB-0" target="WoCR_UWKjWeRZP0ESXRB-1">
          <mxGeometry relative="1" as="geometry" />
        </mxCell>
        <mxCell id="WoCR_UWKjWeRZP0ESXRB-0" value="START" style="ellipse;whiteSpace=wrap;html=1;" vertex="1" parent="WIyWlLk6GJQsqaUBKTNV-1">
          <mxGeometry x="374" y="40" width="80" height="60" as="geometry" />
        </mxCell>
        <mxCell id="WoCR_UWKjWeRZP0ESXRB-1" value="Enter 10-bit Master Key" style="shape=parallelogram;perimeter=parallelogramPerimeter;whiteSpace=wrap;html=1;fixedSize=1;" vertex="1" parent="WIyWlLk6GJQsqaUBKTNV-1">
          <mxGeometry x="331" y="150" width="166" height="40" as="geometry" />
        </mxCell>
        <mxCell id="WoCR_UWKjWeRZP0ESXRB-2" value="" style="endArrow=classic;html=1;rounded=0;exitX=0.5;exitY=1;exitDx=0;exitDy=0;" edge="1" parent="WIyWlLk6GJQsqaUBKTNV-1" source="WoCR_UWKjWeRZP0ESXRB-1">
          <mxGeometry width="50" height="50" relative="1" as="geometry">
            <mxPoint x="584" y="430" as="sourcePoint" />
            <mxPoint x="414" y="250" as="targetPoint" />
          </mxGeometry>
        </mxCell>
        <mxCell id="WoCR_UWKjWeRZP0ESXRB-7" value="" style="edgeStyle=orthogonalEdgeStyle;rounded=0;orthogonalLoop=1;jettySize=auto;html=1;" edge="1" parent="WIyWlLk6GJQsqaUBKTNV-1" source="WoCR_UWKjWeRZP0ESXRB-4" target="WoCR_UWKjWeRZP0ESXRB-6">
          <mxGeometry relative="1" as="geometry" />
        </mxCell>
        <mxCell id="WoCR_UWKjWeRZP0ESXRB-13" value="" style="edgeStyle=orthogonalEdgeStyle;rounded=0;orthogonalLoop=1;jettySize=auto;html=1;" edge="1" parent="WIyWlLk6GJQsqaUBKTNV-1" source="WoCR_UWKjWeRZP0ESXRB-4" target="WoCR_UWKjWeRZP0ESXRB-12">
          <mxGeometry relative="1" as="geometry" />
        </mxCell>
        <mxCell id="WoCR_UWKjWeRZP0ESXRB-19" value="" style="edgeStyle=orthogonalEdgeStyle;rounded=0;orthogonalLoop=1;jettySize=auto;html=1;" edge="1" parent="WIyWlLk6GJQsqaUBKTNV-1" source="WoCR_UWKjWeRZP0ESXRB-4" target="WoCR_UWKjWeRZP0ESXRB-18">
          <mxGeometry relative="1" as="geometry" />
        </mxCell>
        <mxCell id="WoCR_UWKjWeRZP0ESXRB-4" value="&lt;span&gt;Input Encryption or Decryption or Both&lt;/span&gt;" style="shape=parallelogram;perimeter=parallelogramPerimeter;whiteSpace=wrap;html=1;fixedSize=1;" vertex="1" parent="WIyWlLk6GJQsqaUBKTNV-1">
          <mxGeometry x="344" y="250" width="140" height="40" as="geometry" />
        </mxCell>
        <mxCell id="WoCR_UWKjWeRZP0ESXRB-9" value="" style="edgeStyle=orthogonalEdgeStyle;rounded=0;orthogonalLoop=1;jettySize=auto;html=1;" edge="1" parent="WIyWlLk6GJQsqaUBKTNV-1" source="WoCR_UWKjWeRZP0ESXRB-6" target="WoCR_UWKjWeRZP0ESXRB-8">
          <mxGeometry relative="1" as="geometry" />
        </mxCell>
        <mxCell id="WoCR_UWKjWeRZP0ESXRB-6" value="if input = Encryption" style="rhombus;whiteSpace=wrap;html=1;" vertex="1" parent="WIyWlLk6GJQsqaUBKTNV-1">
          <mxGeometry x="154" y="230" width="80" height="80" as="geometry" />
        </mxCell>
        <mxCell id="WoCR_UWKjWeRZP0ESXRB-11" value="" style="edgeStyle=orthogonalEdgeStyle;rounded=0;orthogonalLoop=1;jettySize=auto;html=1;" edge="1" parent="WIyWlLk6GJQsqaUBKTNV-1" source="WoCR_UWKjWeRZP0ESXRB-8" target="WoCR_UWKjWeRZP0ESXRB-10">
          <mxGeometry relative="1" as="geometry" />
        </mxCell>
        <mxCell id="WoCR_UWKjWeRZP0ESXRB-8" value="Class encryption is called" style="whiteSpace=wrap;html=1;" vertex="1" parent="WIyWlLk6GJQsqaUBKTNV-1">
          <mxGeometry x="134" y="470" width="120" height="60" as="geometry" />
        </mxCell>
        <mxCell id="WoCR_UWKjWeRZP0ESXRB-10" value="End" style="ellipse;whiteSpace=wrap;html=1;" vertex="1" parent="WIyWlLk6GJQsqaUBKTNV-1">
          <mxGeometry x="134" y="660" width="120" height="60" as="geometry" />
        </mxCell>
        <mxCell id="WoCR_UWKjWeRZP0ESXRB-15" value="" style="edgeStyle=orthogonalEdgeStyle;rounded=0;orthogonalLoop=1;jettySize=auto;html=1;" edge="1" parent="WIyWlLk6GJQsqaUBKTNV-1" source="WoCR_UWKjWeRZP0ESXRB-12" target="WoCR_UWKjWeRZP0ESXRB-14">
          <mxGeometry relative="1" as="geometry" />
        </mxCell>
        <mxCell id="WoCR_UWKjWeRZP0ESXRB-12" value="&lt;span&gt;if input = Decryption&lt;/span&gt;" style="rhombus;whiteSpace=wrap;html=1;" vertex="1" parent="WIyWlLk6GJQsqaUBKTNV-1">
          <mxGeometry x="594" y="230" width="80" height="80" as="geometry" />
        </mxCell>
        <mxCell id="WoCR_UWKjWeRZP0ESXRB-17" value="" style="edgeStyle=orthogonalEdgeStyle;rounded=0;orthogonalLoop=1;jettySize=auto;html=1;" edge="1" parent="WIyWlLk6GJQsqaUBKTNV-1" source="WoCR_UWKjWeRZP0ESXRB-14" target="WoCR_UWKjWeRZP0ESXRB-16">
          <mxGeometry relative="1" as="geometry" />
        </mxCell>
        <mxCell id="WoCR_UWKjWeRZP0ESXRB-14" value="&lt;span&gt;Class decryption is called&lt;/span&gt;" style="whiteSpace=wrap;html=1;" vertex="1" parent="WIyWlLk6GJQsqaUBKTNV-1">
          <mxGeometry x="574" y="570" width="120" height="60" as="geometry" />
        </mxCell>
        <mxCell id="WoCR_UWKjWeRZP0ESXRB-16" value="End" style="ellipse;whiteSpace=wrap;html=1;" vertex="1" parent="WIyWlLk6GJQsqaUBKTNV-1">
          <mxGeometry x="574" y="660" width="120" height="60" as="geometry" />
        </mxCell>
        <mxCell id="WoCR_UWKjWeRZP0ESXRB-21" value="" style="edgeStyle=orthogonalEdgeStyle;rounded=0;orthogonalLoop=1;jettySize=auto;html=1;" edge="1" parent="WIyWlLk6GJQsqaUBKTNV-1" source="WoCR_UWKjWeRZP0ESXRB-18" target="WoCR_UWKjWeRZP0ESXRB-20">
          <mxGeometry relative="1" as="geometry" />
        </mxCell>
        <mxCell id="WoCR_UWKjWeRZP0ESXRB-18" value="if input =&amp;nbsp; &amp;nbsp;both" style="rhombus;whiteSpace=wrap;html=1;" vertex="1" parent="WIyWlLk6GJQsqaUBKTNV-1">
          <mxGeometry x="374" y="340" width="80" height="80" as="geometry" />
        </mxCell>
        <mxCell id="WoCR_UWKjWeRZP0ESXRB-23" value="" style="edgeStyle=orthogonalEdgeStyle;rounded=0;orthogonalLoop=1;jettySize=auto;html=1;" edge="1" parent="WIyWlLk6GJQsqaUBKTNV-1" source="WoCR_UWKjWeRZP0ESXRB-20" target="WoCR_UWKjWeRZP0ESXRB-22">
          <mxGeometry relative="1" as="geometry" />
        </mxCell>
        <mxCell id="WoCR_UWKjWeRZP0ESXRB-20" value="&lt;span&gt;Class encryption is called&lt;/span&gt;" style="whiteSpace=wrap;html=1;" vertex="1" parent="WIyWlLk6GJQsqaUBKTNV-1">
          <mxGeometry x="354" y="470" width="120" height="60" as="geometry" />
        </mxCell>
        <mxCell id="WoCR_UWKjWeRZP0ESXRB-25" value="" style="edgeStyle=orthogonalEdgeStyle;rounded=0;orthogonalLoop=1;jettySize=auto;html=1;" edge="1" parent="WIyWlLk6GJQsqaUBKTNV-1" source="WoCR_UWKjWeRZP0ESXRB-22" target="WoCR_UWKjWeRZP0ESXRB-24">
          <mxGeometry relative="1" as="geometry" />
        </mxCell>
        <mxCell id="WoCR_UWKjWeRZP0ESXRB-22" value="&lt;span&gt;Class decryption is called&lt;/span&gt;" style="whiteSpace=wrap;html=1;" vertex="1" parent="WIyWlLk6GJQsqaUBKTNV-1">
          <mxGeometry x="354" y="570" width="120" height="60" as="geometry" />
        </mxCell>
        <mxCell id="WoCR_UWKjWeRZP0ESXRB-24" value="&lt;span&gt;End&lt;/span&gt;" style="ellipse;whiteSpace=wrap;html=1;" vertex="1" parent="WIyWlLk6GJQsqaUBKTNV-1">
          <mxGeometry x="354" y="660" width="120" height="60" as="geometry" />
        </mxCell>
      </root>
    </mxGraphModel>
  </diagram>
</mxfile>
